<svg width="251" height="96" viewBox="0 0 251 96" fill="none" xmlns="http://www.w3.org/2000/svg">
<path d="M231.896 38.0138C231.902 41.5446 233.464 44.1957 236.583 45.9669C240.462 48.1737 244.223 47.7062 247.868 44.5644C247.892 44.5433 247.92 44.5277 247.951 44.5188C247.982 44.5099 248.015 44.5079 248.046 44.5129C248.078 44.5179 248.109 44.5297 248.135 44.5477C248.162 44.5656 248.184 44.5892 248.201 44.6167L250.969 49.3903C250.998 49.4435 251.007 49.5053 250.994 49.5644C250.981 49.6236 250.948 49.6762 250.899 49.7126C240.736 57.2738 226.018 51.1325 226 38.0225C225.982 24.9038 240.684 18.7277 250.864 26.2627C250.913 26.2992 250.946 26.3518 250.959 26.4109C250.972 26.4701 250.963 26.5318 250.934 26.585L248.183 31.3586C248.167 31.3868 248.146 31.4111 248.119 31.4299C248.093 31.4487 248.063 31.4615 248.031 31.4673C247.999 31.4732 247.967 31.4719 247.935 31.4637C247.904 31.4554 247.875 31.4403 247.85 31.4196C244.2 28.2836 240.435 27.8249 236.557 30.0433C233.444 31.8203 231.89 34.4771 231.896 38.0138Z" fill="white"/>
<path d="M123.385 38C123.385 39.0564 123.373 39.8932 123.351 40.5104C123.344 40.6402 123.29 40.7625 123.201 40.8519C123.111 40.9414 122.993 40.9912 122.869 40.9911H114.155C114.05 40.9911 113.949 41.0342 113.875 41.111C113.801 41.1878 113.759 41.292 113.759 41.4006V46.5638C113.759 46.6795 113.804 46.7904 113.883 46.8722C113.962 46.954 114.069 47 114.18 47H127.398C127.558 47 127.711 47.0657 127.824 47.1825C127.937 47.2994 128 47.4579 128 47.6231V52.4392C128 52.5879 127.943 52.7306 127.841 52.8357C127.74 52.9409 127.602 53 127.459 53H108.603C108.462 52.9982 108.327 52.9421 108.225 52.8431C108.123 52.744 108.061 52.6093 108.053 52.4659C108.018 51.8902 108.001 47.0683 108.001 38C107.995 28.9318 108.01 24.1098 108.044 23.5341C108.053 23.3892 108.116 23.2532 108.22 23.1539C108.323 23.0547 108.46 22.9996 108.603 23H127.459C127.602 23 127.74 23.0591 127.841 23.1643C127.943 23.2694 128 23.4121 128 23.5608V28.3769C128 28.5421 127.937 28.7006 127.824 28.8175C127.711 28.9343 127.558 29 127.398 29H114.18C114.069 29 113.962 29.046 113.883 29.1278C113.804 29.2096 113.759 29.3205 113.759 29.4362V34.5994C113.759 34.708 113.801 34.8122 113.875 34.889C113.949 34.9658 114.05 35.0089 114.155 35.0089H122.869C122.993 35.0088 123.111 35.0586 123.201 35.1481C123.29 35.2375 123.344 35.3598 123.351 35.4896C123.373 36.1068 123.385 36.9436 123.385 38Z" fill="white"/>
<path d="M142.004 23.0071C145.653 22.9953 149.206 23.0012 152.663 23.0249C152.706 23.0237 152.75 23.0322 152.791 23.05C152.832 23.0678 152.869 23.0945 152.901 23.1285C152.932 23.1625 152.957 23.2031 152.974 23.248C152.991 23.2928 153 23.341 153 23.3897V28.6124C153 28.6592 152.992 28.7054 152.976 28.7486C152.959 28.7918 152.936 28.831 152.906 28.8641C152.876 28.8971 152.841 28.9233 152.802 28.9412C152.763 28.9591 152.721 28.9683 152.679 28.9683H145.263C145.13 28.9683 145.003 29.0255 144.908 29.1273C144.814 29.2291 144.761 29.3671 144.761 29.5111V52.3683C144.761 52.5335 144.701 52.6919 144.593 52.8087C144.485 52.9255 144.338 52.9911 144.185 52.9911C143.883 52.997 143.151 53 141.988 53C140.824 53 140.095 52.997 139.798 52.9911C139.723 52.9911 139.648 52.975 139.578 52.9437C139.508 52.9124 139.444 52.8665 139.391 52.8087C139.337 52.7508 139.295 52.6822 139.266 52.6066C139.237 52.5311 139.222 52.4501 139.222 52.3683L139.239 29.5111C139.239 29.3671 139.186 29.2291 139.092 29.1273C138.997 29.0255 138.87 28.9683 138.737 28.9683L131.321 28.9594C131.236 28.9594 131.154 28.9219 131.094 28.8552C131.034 28.7884 131 28.6979 131 28.6035V23.3808C131 23.3321 131.009 23.2839 131.026 23.2391C131.043 23.1942 131.068 23.1536 131.099 23.1196C131.131 23.0856 131.168 23.0589 131.209 23.0411C131.25 23.0233 131.294 23.0148 131.337 23.016C134.794 22.9982 138.35 22.9953 142.004 23.0071Z" fill="white"/>
<path d="M169.005 34.9911C171.548 34.9911 173.361 35.0148 174.443 35.0622C174.512 35.0646 174.581 35.0531 174.645 35.0282C174.71 35.0034 174.769 34.9658 174.818 34.9177C174.868 34.8696 174.908 34.8119 174.935 34.7482C174.961 34.6844 174.975 34.6159 174.975 34.5467V23.5067C174.975 23.4395 174.989 23.3728 175.015 23.3108C175.041 23.2487 175.079 23.1925 175.127 23.1453C175.174 23.0981 175.231 23.061 175.294 23.0361C175.356 23.0111 175.423 22.9989 175.49 23.0001L180.6 23.0267C180.655 23.0265 180.709 23.0378 180.759 23.06C180.809 23.0821 180.855 23.1147 180.892 23.1555C180.929 23.1964 180.958 23.2447 180.977 23.2975C180.995 23.3502 181.003 23.4063 180.999 23.4623C180.981 23.6934 180.972 28.5378 180.972 37.9956C180.972 47.4592 180.981 52.3066 180.999 52.5377C181.003 52.5937 180.995 52.6498 180.977 52.7025C180.958 52.7553 180.929 52.8036 180.892 52.8445C180.855 52.8853 180.809 52.9179 180.759 52.94C180.709 52.9622 180.655 52.9735 180.6 52.9733L175.49 52.9999C175.423 53.0011 175.356 52.9889 175.294 52.9639C175.231 52.939 175.174 52.9019 175.127 52.8547C175.079 52.8075 175.041 52.7513 175.015 52.6892C174.989 52.6272 174.975 52.5605 174.975 52.4933V41.4533C174.975 41.3833 174.961 41.314 174.934 41.2497C174.906 41.1853 174.866 41.1272 174.815 41.079C174.765 41.0308 174.705 40.9934 174.639 40.9691C174.574 40.9448 174.504 40.9341 174.434 40.9378C173.358 40.9792 171.548 41 169.005 41C166.456 41 164.643 40.9792 163.567 40.9378C163.497 40.9341 163.427 40.9448 163.361 40.9691C163.296 40.9934 163.236 41.0308 163.185 41.079C163.135 41.1272 163.094 41.1853 163.067 41.2497C163.039 41.314 163.025 41.3833 163.025 41.4533V52.4933C163.025 52.5605 163.012 52.6272 162.986 52.6892C162.96 52.7513 162.922 52.8075 162.874 52.8547C162.826 52.9019 162.769 52.939 162.707 52.9639C162.645 52.9889 162.578 53.0011 162.511 52.9999L157.401 52.9733C157.345 52.9736 157.29 52.962 157.239 52.9393C157.188 52.9166 157.143 52.8833 157.105 52.8415C157.068 52.7997 157.039 52.7502 157.021 52.6964C157.003 52.6426 156.997 52.5855 157.002 52.5288C157.019 52.2977 157.028 47.4533 157.028 37.9956C157.028 28.5378 157.019 23.6934 157.002 23.4623C156.997 23.4056 157.003 23.3485 157.021 23.2947C157.039 23.2409 157.068 23.1915 157.105 23.1496C157.143 23.1078 157.188 23.0745 157.239 23.0518C157.29 23.0291 157.345 23.0175 157.401 23.0179L162.511 23.0001C162.578 22.9989 162.645 23.0111 162.707 23.0361C162.769 23.061 162.826 23.0981 162.874 23.1453C162.922 23.1925 162.96 23.2487 162.986 23.3108C163.012 23.3728 163.025 23.4395 163.025 23.5067V34.5467C163.025 34.6167 163.039 34.686 163.067 34.7503C163.094 34.8147 163.135 34.8728 163.185 34.921C163.236 34.9692 163.296 35.0066 163.361 35.0309C163.427 35.0552 163.497 35.0659 163.567 35.0622C164.643 35.0148 166.456 34.9911 169.005 34.9911Z" fill="white"/>
<path d="M200.85 36.6792C201.85 38.4877 202.834 40.2428 203.8 41.9445C203.819 41.9839 203.851 42.0147 203.89 42.0319C203.929 42.0491 203.972 42.0518 204.014 42.0395C204.055 42.0272 204.092 42.0007 204.119 41.9641C204.145 41.9275 204.16 41.8831 204.16 41.8378V23.3647C204.16 23.2679 204.197 23.1752 204.263 23.1068C204.329 23.0384 204.418 23 204.512 23H209.666C209.709 23 209.753 23.009 209.794 23.0264C209.834 23.0438 209.871 23.0694 209.902 23.1016C209.933 23.1338 209.958 23.172 209.975 23.2141C209.991 23.2562 210 23.3013 210 23.3469V52.5108C210 52.6405 209.949 52.765 209.859 52.8567C209.769 52.9484 209.647 53 209.52 53H204.4C204.243 53.001 204.088 52.959 203.95 52.8779C203.812 52.7969 203.695 52.6796 203.611 52.5375C200.838 47.705 198.348 43.2994 196.142 39.3208C195.147 37.5123 194.166 35.7601 193.2 34.0643C193.181 34.0255 193.15 33.995 193.112 33.9775C193.074 33.9601 193.031 33.9567 192.99 33.9678C192.949 33.979 192.912 34.0041 192.885 34.0392C192.858 34.0743 192.842 34.1176 192.84 34.1622V52.6353C192.84 52.732 192.803 52.8248 192.737 52.8932C192.671 52.9616 192.582 53 192.488 53H187.334C187.246 53 187.161 52.9634 187.098 52.8984C187.035 52.8333 187 52.7451 187 52.6531V23.4892C187 23.3594 187.051 23.235 187.141 23.1433C187.231 23.0515 187.353 23 187.48 23H192.6C192.758 22.9999 192.913 23.0433 193.051 23.1259C193.19 23.2086 193.306 23.3276 193.389 23.4714C196.162 28.3039 198.649 32.7065 200.85 36.6792Z" fill="white"/>
<path d="M220.734 23H216.266C216.119 23 216 23.1438 216 23.3212V52.6788C216 52.8562 216.119 53 216.266 53H220.734C220.881 53 221 52.8562 221 52.6788V23.3212C221 23.1438 220.881 23 220.734 23Z" fill="white"/>
<path d="M170 68C170 69.5913 169.263 71.1174 167.95 72.2426C166.637 73.3679 164.857 74 163 74C161.143 74 159.363 73.3679 158.05 72.2426C156.737 71.1174 156 69.5913 156 68C156 66.4087 156.737 64.8826 158.05 63.7574C159.363 62.6321 161.143 62 163 62C164.857 62 166.637 62.6321 167.95 63.7574C169.263 64.8826 170 66.4087 170 68ZM167.283 67.9856C167.281 67.5048 167.168 67.029 166.951 66.5855C166.733 66.1419 166.415 65.7393 166.014 65.4007C165.614 65.062 165.139 64.7939 164.616 64.6116C164.094 64.4293 163.534 64.3365 162.969 64.3384C161.829 64.3423 160.736 64.7317 159.932 65.4211C159.128 66.1105 158.679 67.0433 158.682 68.0144C158.684 68.4953 158.797 68.971 159.015 69.4146C159.232 69.8581 159.551 70.2607 159.951 70.5993C160.352 70.938 160.827 71.2061 161.349 71.3884C161.872 71.5707 162.431 71.6635 162.996 71.6616C164.137 71.6578 165.229 71.2683 166.033 70.5789C166.837 69.8896 167.287 68.9567 167.283 67.9856Z" fill="white"/>
<path d="M214.619 67.9883C214.611 71.6365 218.8 72.3627 221.461 70.9102C221.594 70.8368 221.75 70.8187 221.896 70.8597C222.042 70.9008 222.166 70.9977 222.242 71.1298L222.905 72.2867C222.94 72.3483 222.962 72.4161 222.971 72.4862C222.979 72.5563 222.974 72.6272 222.955 72.6949C222.937 72.7625 222.905 72.8255 222.861 72.8801C222.818 72.9347 222.765 72.9799 222.704 73.013C218.439 75.3691 211.983 73.4352 212 67.9799C212.017 62.5246 218.489 60.633 222.729 63.0059C222.79 63.039 222.843 63.0842 222.887 63.1388C222.93 63.1934 222.962 63.2564 222.981 63.324C222.999 63.3917 223.005 63.4626 222.996 63.5327C222.987 63.6028 222.965 63.6706 222.93 63.7322L222.259 64.8891C222.182 65.0197 222.057 65.1149 221.911 65.1543C221.765 65.1938 221.61 65.1744 221.478 65.1002C218.825 63.6393 214.636 64.3402 214.619 67.9883Z" fill="white"/>
<path d="M110.557 62H108.443C108.199 62 108 62.1809 108 62.404V73.596C108 73.8191 108.199 74 108.443 74H110.557C110.801 74 111 73.8191 111 73.596V62.404C111 62.1809 110.801 62 110.557 62Z" fill="white"/>
<path d="M124.48 68.6458C123.777 67.6308 123.359 67.0406 123.225 66.8753C123.19 66.8332 123.143 66.8028 123.09 66.788C123.036 66.7731 122.98 66.7747 122.928 66.7924C122.875 66.8101 122.83 66.8432 122.797 66.887C122.765 66.9309 122.747 66.9835 122.746 67.0378V73.5039C122.746 73.6355 122.692 73.7617 122.598 73.8547C122.503 73.9477 122.374 74 122.24 74H120.584C120.507 74 120.431 73.985 120.361 73.9557C120.29 73.9265 120.225 73.8837 120.171 73.8296C120.117 73.7756 120.074 73.7115 120.044 73.641C120.015 73.5704 120 73.4948 120 73.4184V62.5645C120 62.4148 120.061 62.2712 120.168 62.1653C120.276 62.0595 120.423 62 120.575 62H122.432C122.584 62.0003 122.735 62.038 122.869 62.1097C123.002 62.1814 123.116 62.2848 123.199 62.4105C124.338 64.1497 125.445 65.7976 126.52 67.3542C127.223 68.3692 127.641 68.9594 127.775 69.1247C127.81 69.1668 127.857 69.1972 127.91 69.212C127.964 69.2269 128.02 69.2253 128.072 69.2076C128.125 69.1899 128.17 69.1568 128.203 69.113C128.235 69.0691 128.253 69.0165 128.254 68.9622V62.4961C128.254 62.3645 128.308 62.2383 128.402 62.1453C128.497 62.0523 128.626 62 128.76 62H130.416C130.571 62 130.719 62.0613 130.829 62.1704C130.938 62.2794 131 62.4274 131 62.5816V73.4355C131 73.5096 130.985 73.583 130.956 73.6515C130.927 73.72 130.885 73.7822 130.832 73.8347C130.778 73.8871 130.715 73.9287 130.645 73.957C130.575 73.9854 130.5 74 130.425 74H128.568C128.416 73.9997 128.265 73.962 128.131 73.8903C127.998 73.8186 127.884 73.7152 127.801 73.5894C126.662 71.8503 125.555 70.2024 124.48 68.6458Z" fill="white"/>
<path d="M140 73.4861V62.5139C140 62.4464 140.013 62.3796 140.037 62.3173C140.062 62.2549 140.098 62.1982 140.143 62.1505C140.188 62.1028 140.242 62.0649 140.301 62.0391C140.361 62.0133 140.424 62 140.488 62H148.512C148.641 62 148.765 62.0541 148.857 62.1505C148.949 62.2469 149 62.3776 149 62.5139V63.8587C149 63.995 148.949 64.1257 148.857 64.2221C148.765 64.3184 148.641 64.3726 148.512 64.3726H142.905C142.841 64.3726 142.777 64.3859 142.718 64.4117C142.659 64.4375 142.605 64.4754 142.56 64.5231C142.514 64.5708 142.479 64.6275 142.454 64.6898C142.429 64.7522 142.417 64.819 142.417 64.8865V66.137C142.417 66.2045 142.429 66.2714 142.454 66.3337C142.479 66.3961 142.514 66.4527 142.56 66.5004C142.605 66.5482 142.659 66.586 142.718 66.6118C142.777 66.6377 142.841 66.651 142.905 66.651H145.883C146.013 66.651 146.137 66.7051 146.229 66.8015C146.32 66.8979 146.372 67.0286 146.372 67.1649V68.7752C146.372 68.9115 146.32 69.0422 146.229 69.1386C146.137 69.2349 146.013 69.2891 145.883 69.2891H142.954C142.89 69.2891 142.826 69.3024 142.767 69.3282C142.708 69.354 142.654 69.3919 142.609 69.4396C142.563 69.4873 142.527 69.544 142.503 69.6063C142.478 69.6687 142.466 69.7355 142.466 69.803V73.4861C142.466 73.5536 142.453 73.6204 142.428 73.6827C142.404 73.7451 142.368 73.8018 142.323 73.8495C142.277 73.8972 142.223 73.9351 142.164 73.9609C142.105 73.9867 142.042 74 141.977 74H140.488C140.424 74 140.361 73.9867 140.301 73.9609C140.242 73.9351 140.188 73.8972 140.143 73.8495C140.098 73.8018 140.062 73.7451 140.037 73.6827C140.013 73.6204 140 73.5536 140 73.4861Z" fill="white"/>
<path d="M182.005 62.0428C183.891 62.0428 185.679 62.0314 187.367 62.0086C187.45 62.0075 187.532 62.0212 187.609 62.049C187.685 62.0768 187.755 62.1182 187.814 62.1706C187.873 62.2231 187.92 62.2856 187.952 62.3546C187.984 62.4235 188 62.4975 188 62.5723V63.7766C188 63.9397 187.929 64.0961 187.804 64.2114C187.678 64.3267 187.507 64.3915 187.33 64.3915H184.025C183.882 64.3915 183.744 64.4437 183.643 64.5366C183.542 64.6295 183.485 64.7555 183.485 64.8869V73.3594C183.487 73.4975 183.434 73.6315 183.336 73.7366C183.239 73.8418 183.103 73.9111 182.954 73.9317C182.638 73.9772 182.315 74 181.986 74C181.657 74 181.337 73.9744 181.027 73.9231C180.88 73.9027 180.746 73.8347 180.648 73.7313C180.551 73.6279 180.497 73.496 180.497 73.3594L180.515 64.8869C180.515 64.7555 180.458 64.6295 180.357 64.5366C180.256 64.4437 180.118 64.3915 179.975 64.3915L176.67 64.383C176.493 64.383 176.322 64.3182 176.196 64.2029C176.071 64.0875 176 63.9311 176 63.768V62.5638C176 62.489 176.016 62.415 176.048 62.346C176.08 62.2771 176.127 62.2145 176.186 62.1621C176.245 62.1096 176.315 62.0683 176.391 62.0405C176.468 62.0127 176.55 61.9989 176.633 62.0001C178.327 62.0228 180.118 62.0371 182.005 62.0428Z" fill="white"/>
<path d="M202.896 67.9957C202.896 69.065 202.204 69.5197 200.82 69.3595C199.846 69.2452 199.12 69.2109 198.643 69.2566C198.436 69.2758 198.244 69.3665 198.104 69.5108C197.965 69.6552 197.888 69.8429 197.889 70.0372V70.9721C197.889 71.1405 197.961 71.3019 198.088 71.421C198.216 71.54 198.389 71.6069 198.569 71.6069H204.283C204.473 71.6069 204.656 71.6764 204.79 71.8003C204.925 71.9242 205 72.0922 205 72.2673V73.4167C205 73.5714 204.934 73.7198 204.817 73.8292C204.7 73.9385 204.541 74 204.375 74H195.629C195.466 74 195.31 73.9385 195.194 73.8291C195.079 73.7198 195.014 73.5714 195.014 73.4167C195.008 72.9478 195.005 71.1437 195.005 68.0043C194.998 64.8649 194.998 63.0579 195.005 62.5833C195.007 62.4301 195.073 62.2839 195.188 62.1764C195.303 62.0688 195.458 62.0086 195.62 62.0086L204.366 62C204.53 62 204.688 62.0603 204.805 62.1678C204.922 62.2753 204.988 62.4215 204.991 62.5747V63.7241C204.992 63.8108 204.975 63.897 204.94 63.9775C204.905 64.0581 204.853 64.1315 204.787 64.1937C204.722 64.2558 204.643 64.3054 204.557 64.3396C204.47 64.3738 204.378 64.392 204.283 64.3931H198.569C198.389 64.3931 198.216 64.46 198.088 64.5791C197.961 64.6981 197.889 64.8595 197.889 65.0279V65.9628C197.888 66.1571 197.965 66.3448 198.104 66.4892C198.244 66.6335 198.436 66.7242 198.643 66.7434C199.12 66.7891 199.846 66.7548 200.82 66.6405C202.204 66.4803 202.896 66.9321 202.896 67.9957Z" fill="white"/>
<path d="M236.5 66.7079C237.292 66.7079 238.004 66.6852 238.639 66.6397C238.807 66.6288 238.965 66.5567 239.08 66.4379C239.195 66.3191 239.259 66.1625 239.259 66V62.4947C239.259 62.4291 239.272 62.364 239.298 62.3034C239.324 62.2429 239.362 62.188 239.41 62.1419C239.458 62.0959 239.515 62.0596 239.577 62.0352C239.64 62.0109 239.707 61.9989 239.774 62.0001L241.371 62.0257C241.527 62.0322 241.675 62.0968 241.784 62.2062C241.892 62.3157 241.954 62.4616 241.956 62.6141C241.985 62.9553 242 64.752 242 68.0043C242 71.2565 241.985 73.0504 241.956 73.3859C241.954 73.5384 241.892 73.6843 241.784 73.7938C241.675 73.9032 241.527 73.9678 241.371 73.9743L239.774 73.9999C239.707 74.0011 239.64 73.9891 239.577 73.9647C239.515 73.9404 239.458 73.9041 239.41 73.8581C239.362 73.812 239.324 73.7571 239.298 73.6965C239.272 73.636 239.259 73.5709 239.259 73.5053V70C239.259 69.8375 239.195 69.6809 239.08 69.5621C238.965 69.4433 238.807 69.3712 238.639 69.3603C238.004 69.3148 237.292 69.2921 236.5 69.2921C235.714 69.2921 235.001 69.3148 234.361 69.3603C234.194 69.3732 234.039 69.4462 233.926 69.5648C233.812 69.6834 233.75 69.8388 233.75 70V73.5053C233.75 73.5709 233.737 73.636 233.711 73.6965C233.685 73.7571 233.647 73.812 233.599 73.8581C233.551 73.9041 233.494 73.9404 233.431 73.9647C233.369 73.9891 233.302 74.0011 233.235 73.9999L231.637 73.9743C231.48 73.97 231.33 73.9063 231.219 73.7966C231.109 73.687 231.046 73.5398 231.044 73.3859C231.015 73.0504 231 71.2565 231 68.0043C231 64.752 231.015 62.9581 231.044 62.6227C231.044 62.4672 231.106 62.3179 231.216 62.2064C231.327 62.095 231.478 62.0301 231.637 62.0257L233.235 62.0001C233.302 61.9989 233.369 62.0109 233.431 62.0352C233.494 62.0596 233.551 62.0959 233.599 62.1419C233.647 62.188 233.685 62.2429 233.711 62.3034C233.737 62.364 233.75 62.4291 233.75 62.4947V66C233.75 66.1612 233.812 66.3166 233.926 66.4352C234.039 66.5538 234.194 66.6268 234.361 66.6397C235.001 66.6852 235.714 66.7079 236.5 66.7079Z" fill="white"/>
<path d="M32.4754 50.1626C32.7168 50.154 34.3847 50.5031 37.4792 51.2099C41.94 52.2185 47.1894 51.9857 52.5035 50.835C60.8217 49.0335 68.1916 47.4043 74.6133 45.9476C74.8089 45.9012 74.981 45.7865 75.0976 45.6247C75.2142 45.4629 75.2673 45.2651 75.2469 45.0683C73.6177 30.7681 60.2226 20.5148 45.793 23.1137C36.7509 24.7342 30.2731 30.113 26.3597 39.25C26.3147 39.3586 26.247 39.4565 26.1612 39.5369C26.0754 39.6174 25.9734 39.6786 25.8621 39.7165C25.7507 39.7545 25.6326 39.7682 25.5155 39.7569C25.3984 39.7455 25.2851 39.7094 25.1831 39.6508L22.4549 38.0734C22.2079 37.9315 21.9162 37.89 21.6413 37.9575C21.3663 38.0251 21.1296 38.1964 20.9809 38.4354C20.1707 39.7284 19.1535 40.8834 17.9295 41.9006C17.8166 41.9962 17.7285 42.1177 17.6728 42.2548C17.617 42.3918 17.5951 42.5403 17.6091 42.6876C17.623 42.8349 17.6724 42.9767 17.753 43.1008C17.8335 43.2249 17.9429 43.3277 18.0718 43.4004L24.472 47.1112C24.6864 47.2318 24.8637 47.4088 24.9846 47.6231C25.1054 47.8374 25.1651 48.0807 25.1572 48.3266C24.6271 70.6174 52.3872 81.2715 67.6959 66.2213C68.5321 65.4025 69.7776 64.618 71.4326 63.8681C74.665 62.3941 75.6693 59.7392 74.4452 55.9034C74.3106 55.4906 74.054 55.1259 73.7083 54.8561C72.2343 53.6925 70.7991 52.3478 68.6657 52.6969C66.459 53.0761 64.7868 54.3174 63.6489 56.4206C63.5218 56.6495 63.4551 56.9076 63.455 57.1705V60.3383C63.4548 60.5539 63.4086 60.7669 63.3194 60.9631C63.2302 61.1594 63.1001 61.3343 62.9378 61.4761C52.6846 70.3976 39.0567 67.3333 33.0185 55.2957C32.4065 54.0717 32.0057 52.615 31.816 50.9255C31.8053 50.8314 31.8141 50.736 31.8421 50.6454C31.87 50.5549 31.9165 50.4711 31.9784 50.3994C32.0404 50.3278 32.1166 50.2697 32.2021 50.2289C32.2877 50.1882 32.3807 50.1656 32.4754 50.1626Z" stroke="#90CDB3" stroke-width="2"/>
<path d="M19.4297 34.647C19.4297 33.1004 18.8153 31.6172 17.7217 30.5236C16.6282 29.43 15.1449 28.8157 13.5984 28.8157C12.0518 28.8157 10.5686 29.43 9.47504 30.5236C8.38146 31.6172 7.76709 33.1004 7.76709 34.647C7.76709 36.1935 8.38146 37.6767 9.47504 38.7703C10.5686 39.8639 12.0518 40.4783 13.5984 40.4783C15.1449 40.4783 16.6282 39.8639 17.7217 38.7703C18.8153 37.6767 19.4297 36.1935 19.4297 34.647Z" stroke="#90CDB3" stroke-width="2"/>
<path d="M66.2478 40.9051C66.4033 40.8663 66.547 40.7905 66.6671 40.6842C66.7872 40.5778 66.8801 40.4439 66.9383 40.2935C66.9964 40.1431 67.018 39.9806 67.0014 39.8194C66.9848 39.6582 66.9303 39.5029 66.8426 39.3665C61.8948 31.7207 55.305 28.5098 47.0731 29.7338C40.1169 30.7682 34.5959 35.7332 32.553 42.3791C32.5179 42.4952 32.5064 42.6172 32.5193 42.738C32.5321 42.8589 32.5691 42.9762 32.628 43.0832C32.6869 43.1902 32.7666 43.2848 32.8625 43.3614C32.9584 43.4381 33.0685 43.4953 33.1866 43.5298C44.7328 46.8657 55.9946 43.5557 66.2478 40.9051Z" stroke="#90CDB3" stroke-width="2"/>
<path d="M94.9039 75.6508C94.8992 78.3278 94.3679 80.9776 93.3402 83.449C92.3124 85.9204 90.8085 88.165 88.9142 90.0546C87.0199 91.9442 84.7723 93.4418 82.2998 94.4619C79.8273 95.482 77.1783 96.0046 74.5041 96L20.3288 95.9054C17.6545 95.9007 15.0073 95.3688 12.5384 94.3401C10.0695 93.3113 7.82714 91.8058 5.93944 89.9096C4.05174 88.0134 2.55564 85.7636 1.53655 83.2886C0.517469 80.8136 -0.00464235 78.162 3.10985e-05 75.485L0.0960988 20.3492C0.100764 17.6722 0.632122 15.0224 1.65984 12.551C2.68755 10.0796 4.19149 7.83501 6.08579 5.94541C7.98009 4.05582 10.2277 2.55821 12.7001 1.5381C15.1726 0.517989 17.8217 -0.00464702 20.4959 3.11298e-05L74.6712 0.0946424C77.3455 0.0993123 79.9927 0.631205 82.4616 1.65995C84.9305 2.6887 87.1729 4.19415 89.0606 6.09036C90.9483 7.98657 92.4443 10.2364 93.4634 12.7114C94.4825 15.1864 95.0046 17.838 95 20.515L94.9039 75.6508ZM32.4757 50.2132C32.717 50.2046 34.385 50.554 37.4795 51.2616C41.9402 52.2711 47.1897 52.0381 52.5038 50.8862C60.8219 49.0829 68.1918 47.4521 74.6136 45.9939C74.8091 45.9475 74.9813 45.8326 75.0979 45.6707C75.2144 45.5087 75.2675 45.3108 75.2471 45.1138C73.618 30.7991 60.2228 20.5356 45.7933 23.1371C36.7511 24.7592 30.2733 30.1434 26.3599 39.2896C26.3149 39.3983 26.2472 39.4963 26.1614 39.5768C26.0756 39.6573 25.9736 39.7186 25.8623 39.7566C25.751 39.7945 25.6328 39.8083 25.5157 39.797C25.3987 39.7856 25.2853 39.7494 25.1833 39.6908L22.4552 38.1118C22.2082 37.9698 21.9165 37.9282 21.6415 37.9958C21.3666 38.0634 21.1298 38.2349 20.9812 38.4742C20.1709 39.7684 19.1538 40.9247 17.9298 41.9428C17.8169 42.0386 17.7288 42.1602 17.673 42.2974C17.6172 42.4346 17.5954 42.5832 17.6093 42.7307C17.6233 42.8781 17.6727 43.02 17.7532 43.1442C17.8338 43.2685 17.9431 43.3714 18.072 43.4442L24.4722 47.1587C24.6867 47.2794 24.864 47.4566 24.9848 47.6711C25.1056 47.8856 25.1654 48.1292 25.1575 48.3753C24.6274 70.6886 52.3874 81.3534 67.6962 66.288C68.5323 65.4683 69.7779 64.6832 71.4329 63.9325C74.6653 62.457 75.6695 59.7994 74.4455 55.9598C74.3109 55.5465 74.0542 55.1815 73.7085 54.9114C72.2345 53.7466 70.7993 52.4005 68.6659 52.75C66.4592 53.1296 64.787 54.3721 63.6492 56.4775C63.5221 56.7066 63.4553 56.965 63.4552 57.2282V60.3991C63.4551 60.6149 63.4089 60.8281 63.3197 61.0246C63.2305 61.221 63.1004 61.3961 62.9381 61.5381C52.6848 70.4685 39.0569 67.4011 33.0187 55.3515C32.4067 54.1262 32.0059 52.668 31.8163 50.9768C31.8055 50.8826 31.8144 50.7871 31.8423 50.6965C31.8703 50.6059 31.9167 50.522 31.9787 50.4502C32.0406 50.3785 32.1168 50.3204 32.2023 50.2796C32.2879 50.2388 32.381 50.2162 32.4757 50.2132ZM19.4296 34.682C19.4296 33.1338 18.8153 31.6491 17.7217 30.5545C16.6281 29.4598 15.1449 28.8448 13.5983 28.8448C12.0518 28.8448 10.5686 29.4598 9.47498 30.5545C8.3814 31.6491 7.76703 33.1338 7.76703 34.682C7.76703 36.2301 8.3814 37.7148 9.47498 38.8095C10.5686 39.9041 12.0518 40.5191 13.5983 40.5191C15.1449 40.5191 16.6281 39.9041 17.7217 38.8095C18.8153 37.7148 19.4296 36.2301 19.4296 34.682Z" fill="#219B66"/>
<path d="M32.0517 50.9228C32.2393 52.5947 32.6356 54.0364 33.2407 55.2477C39.2112 67.1603 52.6864 70.1929 62.8247 61.364C62.9852 61.2236 63.1138 61.0505 63.202 60.8563C63.2902 60.6621 63.3359 60.4513 63.3361 60.2379V57.103C63.3361 56.8428 63.4021 56.5874 63.5278 56.3609C64.6529 54.2795 66.3064 53.0511 68.4883 52.6758C70.5978 52.3303 72.0169 53.661 73.4744 54.8126C73.8163 55.0796 74.07 55.4405 74.2031 55.8491C75.4134 59.6451 74.4205 62.2724 71.2243 63.7311C69.5878 64.4733 68.3562 65.2495 67.5295 66.0599C52.3923 80.9539 24.9434 70.4104 25.4676 48.3509C25.4754 48.1075 25.4163 47.8667 25.2969 47.6547C25.1774 47.4426 25.0021 47.2674 24.79 47.1481L18.4615 43.4758C18.3341 43.4038 18.226 43.3021 18.1463 43.1793C18.0667 43.0564 18.0179 42.9162 18.0041 42.7704C17.9902 42.6246 18.0118 42.4777 18.067 42.342C18.1222 42.2064 18.2093 42.0862 18.3209 41.9915C19.5312 40.9849 20.5369 39.8418 21.3381 38.5623C21.4851 38.3257 21.7192 38.1562 21.9911 38.0894C22.2629 38.0225 22.5514 38.0636 22.7956 38.204L25.4932 39.7651C25.594 39.823 25.7061 39.8588 25.8218 39.87C25.9376 39.8813 26.0544 39.8676 26.1645 39.8301C26.2746 39.7926 26.3754 39.732 26.4603 39.6524C26.5451 39.5728 26.6121 39.4759 26.6566 39.3684C30.5261 30.3262 36.9313 25.0033 45.8721 23.3996C60.1399 20.8277 73.3849 30.9745 74.9958 45.1264C75.0159 45.3212 74.9635 45.5169 74.8482 45.677C74.7329 45.8371 74.5627 45.9507 74.3693 45.9965C68.0196 47.4381 60.7322 49.0504 52.5074 50.8332C47.2528 51.972 42.0622 52.2023 37.6515 51.2043C34.5917 50.5048 32.9424 50.1593 32.7038 50.1679C32.6101 50.1708 32.5181 50.1931 32.4335 50.2335C32.3489 50.2738 32.2736 50.3312 32.2123 50.4022C32.1511 50.4731 32.1051 50.556 32.0775 50.6456C32.0499 50.7352 32.0411 50.8296 32.0517 50.9228ZM66.0976 41.0062C66.2513 40.9678 66.3934 40.8928 66.5122 40.7876C66.6309 40.6823 66.7228 40.5498 66.7803 40.401C66.8378 40.2522 66.8592 40.0913 66.8427 39.9318C66.8263 39.7722 66.7724 39.6186 66.6857 39.4836C61.7934 31.9171 55.2774 28.7396 47.1378 29.9509C40.2596 30.9745 34.8005 35.888 32.7805 42.4649C32.7457 42.5798 32.7344 42.7005 32.7471 42.8201C32.7598 42.9397 32.7964 43.0558 32.8546 43.1617C32.9129 43.2676 32.9917 43.3612 33.0865 43.4371C33.1813 43.5129 33.2902 43.5696 33.4069 43.6037C44.8237 46.905 55.9593 43.6293 66.0976 41.0062Z" fill="white"/>
<path d="M13.5 40C16.5376 40 19 37.5376 19 34.5C19 31.4624 16.5376 29 13.5 29C10.4624 29 8 31.4624 8 34.5C8 37.5376 10.4624 40 13.5 40Z" fill="white"/>
<path d="M66.2518 40.8279C56.145 43.572 45.0441 46.9989 33.6628 43.5453C33.5464 43.5095 33.4379 43.4503 33.3434 43.3709C33.2489 43.2915 33.1703 43.1936 33.1122 43.0829C33.0542 42.9721 33.0177 42.8506 33.005 42.7255C32.9924 42.6004 33.0037 42.4741 33.0383 42.3539C35.052 35.4735 40.4941 30.3332 47.351 29.2623C55.4653 27.9951 61.961 31.3193 66.8381 39.2349C66.9246 39.3762 66.9782 39.5369 66.9946 39.7038C67.011 39.8707 66.9897 40.039 66.9324 40.1947C66.8751 40.3504 66.7835 40.489 66.6651 40.5992C66.5468 40.7093 66.4051 40.7877 66.2518 40.8279Z" fill="#219B66"/>
</svg>
